<?xml version="1.0" encoding="UTF-8" standalone="no"?>
<!DOCTYPE svg PUBLIC "-//W3C//DTD SVG 1.1//EN" "http://www.w3.org/Graphics/SVG/1.1/DTD/svg11.dtd">
<svg width="100%" height="100%" viewBox="0 0 250 344" version="1.1" xmlns="http://www.w3.org/2000/svg" xmlns:xlink="http://www.w3.org/1999/xlink" xml:space="preserve" xmlns:serif="http://www.serif.com/" style="fill-rule:evenodd;clip-rule:evenodd;stroke-linejoin:round;stroke-miterlimit:2;">
    <g transform="matrix(1,0,0,1,-28.5757,-21)">
        <g transform="matrix(0.1,0,0,-0.1,-368,824)">
            <path d="M4021,7990C4071,7901 4168,7821 4281,7777C4383,7736 4444,7723 4704,7685C4967,7647 5055,7626 5158,7578C5252,7534 5356,7430 5401,7333L5435,7260L5495,7260C5579,7260 5682,7236 5742,7203C5803,7170 5877,7090 5935,6995C5968,6939 5998,6908 6086,6837C6252,6702 6380,6591 6380,6580C6380,6563 6331,6569 6290,6590C6245,6613 6244,6611 6265,6570C6283,6535 6327,6510 6370,6510C6410,6510 6408,6500 6361,6457C6296,6399 6232,6396 6035,6445C5935,6470 5909,6472 5758,6471C5494,6468 5364,6508 5285,6617C5248,6669 5236,6671 5245,6623C5262,6527 5337,6417 5411,6379C5442,6364 5450,6353 5455,6323C5458,6302 5479,6206 5500,6110C5552,5875 5563,5796 5563,5660C5563,5543 5546,5447 5502,5320L5483,5266L5476,5325C5465,5421 5442,5498 5395,5595C5351,5686 5301,5759 5301,5730C5301,5722 5307,5688 5316,5655C5324,5621 5333,5522 5337,5425C5344,5218 5330,5130 5272,5008C5233,4926 5153,4806 5163,4845C5166,4856 5176,4890 5185,4920C5210,5005 5215,5161 5196,5250C5163,5404 5055,5571 4927,5667C4859,5718 4736,5779 4686,5787L4654,5792L4740,5879C4875,6014 4910,6105 4935,6393C4961,6686 5000,6825 5101,6978C5134,7029 5103,7017 5045,6957C4923,6831 4863,6663 4826,6343C4810,6210 4786,6124 4748,6061C4714,6005 4631,5922 4566,5877C4473,5814 4163,5672 3978,5607C3960,5601 3962,5579 3983,5553C4005,5524 4089,5542 4310,5623C4379,5648 4462,5673 4494,5679C4573,5693 4666,5679 4750,5638C4839,5595 4972,5461 5017,5369C5117,5164 5094,4941 4953,4747C4933,4721 4919,4698 4921,4696C4940,4681 5081,4590 5086,4590C5100,4590 5251,4725 5346,4822C5463,4942 5520,5020 5584,5145C5669,5313 5710,5482 5710,5659C5709,5820 5689,5926 5610,6174C5588,6244 5570,6307 5570,6315C5570,6324 5585,6332 5608,6335C5628,6339 5694,6351 5754,6362C5851,6381 5873,6382 5964,6372C6020,6366 6103,6354 6149,6345C6274,6322 6327,6336 6393,6409C6435,6456 6460,6509 6460,6553C6460,6589 6420,6660 6386,6687C6373,6697 6293,6764 6207,6837C6091,6936 6045,6982 6022,7022C5924,7195 5776,7319 5636,7345C5614,7350 5600,7358 5600,7367C5600,7375 5582,7417 5560,7460C5498,7577 5378,7687 5246,7745C5107,7807 4982,7831 4656,7860C4349,7888 4240,7911 4103,7977C4063,7996 4027,8016 4024,8021C4021,8026 4014,8030 4009,8030C4003,8030 4009,8012 4021,7990Z" style="fill:white;fill-rule:nonzero;"/>
            <path d="M4550,7545C4550,7541 4567,7501 4588,7456C4653,7318 4765,7215 4899,7170C4973,7145 5146,7131 5176,7148C5195,7158 5195,7159 5175,7166C5085,7197 5035,7228 4984,7283C4954,7315 4931,7344 4932,7346C4946,7359 5180,7265 5246,7219C5271,7202 5294,7190 5297,7193C5308,7204 5234,7323 5196,7357C5112,7429 5016,7463 4767,7510C4678,7527 4593,7543 4578,7547C4562,7550 4550,7549 4550,7545Z" style="fill:white;fill-rule:nonzero;"/>
            <path d="M5626,7055C5563,7033 5561,7025 5610,6975C5660,6925 5706,6910 5820,6910C5883,6910 5890,6912 5890,6930C5890,6964 5823,7027 5764,7050C5700,7073 5679,7074 5626,7055Z" style="fill:white;fill-rule:nonzero;"/>
        </g>
    </g>
</svg>
