<?xml version="1.0" encoding="UTF-8" standalone="no"?>
<!DOCTYPE svg PUBLIC "-//W3C//DTD SVG 1.1//EN" "http://www.w3.org/Graphics/SVG/1.1/DTD/svg11.dtd">
<svg width="100%" height="100%" viewBox="0 0 1024 1024" version="1.1" xmlns="http://www.w3.org/2000/svg" xmlns:xlink="http://www.w3.org/1999/xlink" xml:space="preserve" xmlns:serif="http://www.serif.com/" style="fill-rule:evenodd;clip-rule:evenodd;stroke-linejoin:round;stroke-miterlimit:2;">
    <g transform="matrix(0.1,0,0,-0.1,0,1024)">
        <path d="M0,10240L0,0L10240,0L10240,10240L0,10240ZM5283,9655C5513,9620 5729,9515 5901,9353C5997,9262 6061,9174 6125,9045C6226,8841 6250,8706 6250,8324L6250,8112L6373,8070C6440,8047 6596,7992 6719,7947L6943,7865L6936,7520C6925,6956 6913,6819 6834,6415C6793,6201 6764,6100 6700,5937C6544,5539 6356,5244 6090,4981C5895,4789 5536,4528 5228,4355L5092,4279L4948,4361C4792,4450 4594,4577 4460,4674C4321,4774 4090,4972 3996,5072C3839,5238 3684,5463 3571,5686C3498,5832 3462,5928 3404,6135C3271,6604 3250,6786 3250,7455L3250,7866L3313,7887C3347,7898 3506,7954 3666,8010L3958,8112L3963,8414C3967,8697 3969,8721 3993,8812C4093,9190 4365,9483 4728,9603C4916,9666 5099,9683 5283,9655ZM8567,4009C8593,4003 8657,3978 8709,3953C8788,3915 8817,3894 8885,3826C9022,3689 9080,3549 9080,3355C9080,3204 9040,3079 8953,2956L8918,2907L9094,2731L9028,2665C8991,2629 8958,2600 8954,2600C8949,2600 8907,2638 8860,2685L8774,2770L8705,2735C8604,2685 8500,2666 8365,2673C8168,2684 8046,2735 7921,2858C7799,2979 7735,3111 7720,3272C7686,3634 7908,3934 8270,4015C8342,4031 8486,4028 8567,4009ZM1633,3541L1950,3088L1950,4000L2170,4000L2170,2700L2068,2700L1965,2701L1651,3151C1478,3399 1333,3603 1328,3606C1324,3609 1320,3406 1320,3156L1320,2700L1110,2700L1110,4001L1213,3998L1315,3995L1633,3541ZM7521,3398C7521,3066 7522,2774 7523,2748L7525,2700L7290,2700L7290,4000L7520,4000L7521,3398ZM3025,3668C3130,3633 3220,3562 3278,3469C3341,3366 3366,3193 3336,3067C3282,2836 3115,2698 2875,2683C2565,2665 2340,2874 2340,3180C2340,3333 2391,3460 2489,3554C2573,3633 2651,3669 2795,3693C2840,3701 2969,3687 3025,3668ZM4153,3656C4212,3627 4249,3593 4278,3537L4298,3499L4319,3534C4349,3582 4414,3639 4467,3662C4618,3729 4828,3686 4916,3572C4984,3482 4990,3441 4990,3049L4990,2700L4780,2700L4780,2995C4780,3304 4774,3366 4737,3422C4658,3540 4448,3519 4377,3387C4356,3346 4355,3334 4352,3023L4349,2700L4130,2700L4130,3000C4130,3170 4126,3320 4120,3348C4107,3405 4060,3467 4014,3486C3967,3506 3883,3503 3835,3481C3781,3456 3752,3426 3726,3371C3706,3328 3705,3307 3702,3013L3699,2700L3480,2700L3480,3670L3589,3670C3670,3670 3698,3667 3697,3658C3697,3651 3698,3624 3698,3597L3700,3550L3734,3588C3830,3694 4015,3724 4153,3656ZM5810,3670C6097,3587 6234,3241 6094,2950C5954,2657 5531,2586 5291,2815C5190,2911 5140,3034 5140,3185C5140,3546 5454,3773 5810,3670ZM6828,3666C6903,3639 7022,3549 7019,3521C7019,3518 6989,3492 6952,3464L6885,3413L6841,3451C6717,3561 6469,3534 6470,3411C6471,3338 6509,3317 6695,3285C6870,3255 6943,3226 6999,3165C7047,3113 7064,3057 7057,2975C7042,2786 6865,2670 6610,2683C6458,2691 6371,2725 6270,2817C6248,2836 6230,2856 6230,2860C6230,2864 6262,2893 6300,2925L6371,2982L6411,2945C6471,2891 6531,2869 6630,2863C6777,2854 6850,2891 6850,2975C6850,3046 6810,3071 6651,3095C6513,3117 6461,3130 6409,3156C6357,3182 6305,3237 6282,3289C6260,3340 6261,3445 6283,3502C6307,3565 6392,3642 6462,3666C6563,3700 6735,3700 6828,3666ZM6373,2109C6423,2095 6478,2044 6486,2004C6491,1976 6489,1972 6466,1968C6444,1963 6437,1968 6423,1997C6402,2042 6359,2064 6303,2057C6220,2048 6183,1979 6234,1931C6248,1918 6291,1900 6336,1888C6466,1855 6500,1824 6500,1737C6500,1690 6474,1639 6437,1616C6399,1591 6322,1580 6265,1592C6200,1606 6130,1671 6130,1719C6130,1746 6133,1750 6158,1750C6180,1750 6188,1743 6201,1712C6250,1595 6466,1635 6436,1755C6427,1790 6396,1807 6296,1834C6201,1859 6167,1883 6149,1938C6126,2006 6168,2077 6247,2105C6294,2122 6323,2123 6373,2109ZM1160,2110L1160,1589L1128,1592L1095,1595L1092,1840C1091,1974 1092,2090 1095,2097C1097,2104 1113,2110 1130,2110L1160,2110ZM4330,2110L4330,1650L4590,1650L4590,1590L4270,1590L4270,2110L4330,2110ZM2308,1848L2305,1595L2245,1595L2242,1848L2240,2100L2310,2100L2308,1848ZM2450,2100L2450,1590L2390,1590L2390,2100L2450,2100ZM5880,2100L5880,1590L5820,1590L5820,2100L5880,2100ZM7030,2100L7030,1590L6970,1590L6970,2100L7030,2100ZM1720,2020L1720,1970L1766,1970C1810,1970 1811,1969 1808,1943C1805,1918 1801,1915 1763,1912L1720,1909L1720,1791C1720,1664 1725,1650 1772,1650C1796,1650 1800,1646 1800,1620C1800,1591 1798,1590 1756,1590C1728,1590 1704,1597 1689,1609C1666,1627 1665,1635 1662,1769L1658,1910L1629,1910C1603,1910 1600,1914 1600,1940C1600,1966 1603,1970 1629,1970C1656,1970 1659,1973 1665,2020C1671,2064 1675,2070 1696,2070C1718,2070 1720,2066 1720,2020ZM3940,2020L3940,1970L3980,1970C4018,1970 4020,1968 4020,1940C4020,1912 4018,1910 3980,1910L3940,1910L3940,1792C3940,1664 3945,1650 3992,1650C4016,1650 4020,1646 4020,1620C4020,1591 4018,1590 3975,1590C3940,1590 3923,1596 3905,1615C3881,1638 3880,1644 3880,1775L3880,1910L3850,1910C3823,1910 3820,1913 3820,1940C3820,1967 3823,1970 3850,1970C3879,1970 3880,1971 3880,2020C3880,2069 3881,2070 3910,2070C3939,2070 3940,2069 3940,2020ZM7580,2020L7580,1970L7620,1970C7658,1970 7660,1968 7660,1940C7660,1912 7658,1910 7620,1910L7580,1910L7580,1792C7580,1664 7585,1650 7632,1650C7656,1650 7660,1646 7660,1620C7660,1591 7658,1590 7615,1590C7580,1590 7563,1596 7545,1615C7521,1638 7520,1644 7520,1775L7520,1910L7490,1910C7463,1910 7460,1913 7460,1940C7460,1967 7463,1970 7490,1970C7519,1970 7520,1971 7520,2020C7520,2069 7521,2070 7550,2070C7579,2070 7580,2069 7580,2020ZM1496,1965C1550,1943 1560,1907 1560,1735L1560,1590L1501,1590L1498,1741C1495,1909 1490,1920 1422,1920C1339,1920 1320,1882 1320,1715L1320,1590L1260,1590L1260,1970L1285,1970C1305,1970 1310,1965 1310,1945C1310,1914 1313,1914 1345,1944C1385,1981 1440,1989 1496,1965ZM2090,1958C2142,1931 2180,1869 2180,1808L2180,1770L2040,1770C1885,1770 1887,1771 1914,1706C1933,1661 1966,1640 2018,1640C2053,1640 2067,1646 2092,1671C2117,1695 2128,1700 2151,1695L2180,1688L2159,1658C2125,1610 2083,1590 2017,1590C1909,1590 1849,1648 1842,1757C1831,1925 1956,2025 2090,1958ZM2859,1970C2878,1965 2903,1951 2915,1940L2937,1919L2933,1944C2928,1968 2931,1970 2960,1970L2991,1970L2988,1758C2985,1556 2984,1543 2963,1514C2901,1427 2741,1428 2684,1515C2669,1538 2669,1543 2681,1551C2704,1565 2729,1561 2740,1541C2755,1511 2811,1497 2859,1510C2906,1522 2930,1558 2930,1615L2930,1651L2900,1628C2840,1584 2736,1606 2686,1673C2668,1697 2665,1716 2665,1788C2665,1864 2668,1879 2689,1909C2712,1941 2778,1979 2810,1980C2818,1980 2840,1976 2859,1970ZM3310,1958C3362,1931 3400,1869 3400,1808L3400,1770L3117,1770L3123,1733C3137,1644 3249,1607 3312,1670C3343,1702 3356,1705 3379,1691C3391,1683 3391,1678 3376,1655C3347,1611 3302,1590 3234,1590C3128,1590 3069,1647 3062,1756C3051,1925 3175,2026 3310,1958ZM3704,1966C3765,1941 3770,1924 3770,1748L3770,1590L3710,1590L3710,1737C3710,1906 3704,1920 3638,1920C3550,1920 3530,1881 3530,1710L3530,1590L3470,1590L3470,1970L3495,1970C3516,1970 3520,1965 3520,1938L3520,1905L3538,1927C3557,1952 3614,1979 3648,1980C3660,1980 3686,1974 3704,1966ZM4851,1970C4913,1953 4970,1871 4970,1800L4970,1770L4830,1770C4674,1770 4677,1771 4701,1701C4720,1646 4798,1623 4859,1655C4875,1663 4890,1676 4893,1685C4900,1702 4927,1705 4949,1691C4960,1684 4959,1677 4941,1651C4906,1603 4868,1587 4791,1592C4714,1596 4683,1614 4649,1675C4632,1704 4626,1731 4626,1775C4626,1919 4725,2005 4851,1970ZM5227,1969C5242,1963 5265,1949 5278,1938L5300,1917L5300,1943C5300,1965 5305,1970 5325,1970L5350,1970L5350,1761C5350,1561 5349,1552 5327,1519C5297,1473 5247,1450 5179,1450C5116,1450 5065,1477 5043,1520C5032,1541 5033,1546 5048,1552C5079,1564 5099,1560 5105,1541C5114,1511 5174,1495 5220,1509C5241,1515 5264,1527 5271,1536C5282,1550 5302,1650 5293,1650C5291,1650 5275,1640 5259,1628C5220,1599 5147,1598 5099,1626C5026,1668 4997,1796 5040,1886C5076,1959 5158,1996 5227,1969ZM5678,1956C5722,1933 5729,1904 5731,1743L5732,1595L5706,1592C5683,1589 5680,1592 5680,1621L5680,1653L5656,1627C5626,1595 5594,1586 5528,1592C5460,1599 5430,1631 5430,1696C5430,1771 5473,1799 5613,1815C5669,1821 5670,1822 5670,1852C5670,1900 5645,1920 5589,1920C5547,1920 5538,1916 5518,1890C5503,1869 5488,1860 5467,1860C5440,1860 5438,1862 5445,1888C5464,1966 5589,2002 5678,1956ZM6782,1970C6828,1957 6887,1893 6896,1845C6907,1785 6896,1693 6873,1662C6836,1611 6793,1590 6727,1590C6615,1590 6560,1655 6560,1786C6560,1875 6586,1926 6650,1958C6699,1982 6727,1985 6782,1970ZM8096,1961C8171,1927 8207,1852 8197,1752C8186,1645 8127,1590 8025,1590C7923,1590 7864,1645 7853,1752C7837,1915 7961,2022 8096,1961ZM8493,1969C8560,1951 8570,1921 8570,1743L8570,1590L8510,1590L8510,1735C8510,1867 8508,1882 8490,1900C8461,1929 8399,1927 8363,1896C8335,1872 8335,1871 8332,1731L8328,1590L8270,1590L8270,1970L8295,1970C8315,1970 8320,1965 8320,1943L8320,1917L8344,1939C8383,1976 8433,1986 8493,1969ZM8886,1956C8899,1947 8916,1927 8925,1911C8939,1882 8939,1882 8910,1872C8885,1863 8880,1864 8874,1882C8866,1909 8806,1933 8766,1924C8725,1915 8710,1902 8710,1874C8710,1845 8741,1824 8795,1815C8901,1797 8940,1766 8940,1699C8940,1670 8932,1652 8911,1628C8884,1598 8877,1595 8808,1592C8721,1587 8679,1603 8655,1650C8636,1688 8635,1686 8670,1699C8692,1706 8700,1706 8700,1698C8700,1691 8710,1676 8722,1663C8739,1645 8754,1640 8795,1640C8854,1640 8884,1662 8878,1701C8874,1730 8843,1746 8767,1761C8687,1776 8650,1808 8650,1865C8650,1916 8677,1955 8723,1970C8766,1983 8856,1975 8886,1956ZM2590,1970L2590,1590L2530,1590L2530,1970L2590,1970ZM7172,1824C7175,1685 7176,1677 7199,1659C7224,1638 7270,1634 7301,1650C7340,1671 7350,1712 7350,1845L7350,1970L7410,1970L7410,1590L7385,1590C7364,1590 7360,1595 7360,1619L7360,1648L7329,1619C7302,1594 7290,1590 7241,1590C7131,1590 7110,1628 7110,1830L7110,1970L7168,1970L7172,1824ZM7780,1970L7780,1590L7720,1590L7720,1970L7780,1970Z" style="fill-rule:nonzero;"/>
        <path d="M4987,9309C4899,9297 4784,9259 4701,9213C4602,9158 4456,9007 4403,8905C4325,8754 4317,8714 4312,8463C4310,8340 4310,8240 4312,8240C4314,8240 4490,8307 4704,8388L5092,8537L5902,8231L5898,8458C5894,8675 5893,8689 5866,8765C5793,8977 5665,9124 5465,9225C5319,9299 5144,9329 4987,9309Z" style="fill-rule:nonzero;"/>
        <path d="M4021,7990C4071,7901 4168,7821 4281,7777C4383,7736 4444,7723 4704,7685C4967,7647 5055,7626 5158,7578C5252,7534 5356,7430 5401,7333L5435,7260L5495,7260C5579,7260 5682,7236 5742,7203C5803,7170 5877,7090 5935,6995C5968,6939 5998,6908 6086,6837C6252,6702 6380,6591 6380,6580C6380,6563 6331,6569 6290,6590C6245,6613 6244,6611 6265,6570C6283,6535 6327,6510 6370,6510C6410,6510 6408,6500 6361,6457C6296,6399 6232,6396 6035,6445C5935,6470 5909,6472 5758,6471C5494,6468 5364,6508 5285,6617C5248,6669 5236,6671 5245,6623C5262,6527 5337,6417 5411,6379C5442,6364 5450,6353 5455,6323C5458,6302 5479,6206 5500,6110C5552,5875 5563,5796 5563,5660C5563,5543 5546,5447 5502,5320L5483,5266L5476,5325C5465,5421 5442,5498 5395,5595C5351,5686 5301,5759 5301,5730C5301,5722 5307,5688 5316,5655C5324,5621 5333,5522 5337,5425C5344,5218 5330,5130 5272,5008C5233,4926 5153,4806 5163,4845C5166,4856 5176,4890 5185,4920C5210,5005 5215,5161 5196,5250C5163,5404 5055,5571 4927,5667C4859,5718 4736,5779 4686,5787L4654,5792L4740,5879C4875,6014 4910,6105 4935,6393C4961,6686 5000,6825 5101,6978C5134,7029 5103,7017 5045,6957C4923,6831 4863,6663 4826,6343C4810,6210 4786,6124 4748,6061C4714,6005 4631,5922 4566,5877C4473,5814 4163,5672 3978,5607C3960,5601 3962,5579 3983,5553C4005,5524 4089,5542 4310,5623C4379,5648 4462,5673 4494,5679C4573,5693 4666,5679 4750,5638C4839,5595 4972,5461 5017,5369C5117,5164 5094,4941 4953,4747C4933,4721 4919,4698 4921,4696C4940,4681 5081,4590 5086,4590C5100,4590 5251,4725 5346,4822C5463,4942 5520,5020 5584,5145C5669,5313 5710,5482 5710,5659C5709,5820 5689,5926 5610,6174C5588,6244 5570,6307 5570,6315C5570,6324 5585,6332 5608,6335C5628,6339 5694,6351 5754,6362C5851,6381 5873,6382 5964,6372C6020,6366 6103,6354 6149,6345C6274,6322 6327,6336 6393,6409C6435,6456 6460,6509 6460,6553C6460,6589 6420,6660 6386,6687C6373,6697 6293,6764 6207,6837C6091,6936 6045,6982 6022,7022C5924,7195 5776,7319 5636,7345C5614,7350 5600,7358 5600,7367C5600,7375 5582,7417 5560,7460C5498,7577 5378,7687 5246,7745C5107,7807 4982,7831 4656,7860C4349,7888 4240,7911 4103,7977C4063,7996 4027,8016 4024,8021C4021,8026 4014,8030 4009,8030C4003,8030 4009,8012 4021,7990Z" style="fill-rule:nonzero;"/>
        <path d="M4550,7545C4550,7541 4567,7501 4588,7456C4653,7318 4765,7215 4899,7170C4973,7145 5146,7131 5176,7148C5195,7158 5195,7159 5175,7166C5085,7197 5035,7228 4984,7283C4954,7315 4931,7344 4932,7346C4946,7359 5180,7265 5246,7219C5271,7202 5294,7190 5297,7193C5308,7204 5234,7323 5196,7357C5112,7429 5016,7463 4767,7510C4678,7527 4593,7543 4578,7547C4562,7550 4550,7549 4550,7545Z" style="fill-rule:nonzero;"/>
        <path d="M5626,7055C5563,7033 5561,7025 5610,6975C5660,6925 5706,6910 5820,6910C5883,6910 5890,6912 5890,6930C5890,6964 5823,7027 5764,7050C5700,7073 5679,7074 5626,7055Z" style="fill-rule:nonzero;"/>
        <path d="M8291,3805C8209,3782 8144,3742 8087,3680C7999,3585 7960,3483 7960,3345C7960,3206 7998,3106 8087,3009C8201,2887 8363,2841 8518,2889C8629,2922 8629,2929 8531,3021L8447,3098L8498,3158C8578,3250 8566,3250 8660,3155C8707,3108 8748,3070 8752,3070C8763,3070 8806,3158 8824,3219C8847,3296 8845,3422 8820,3504C8779,3634 8678,3746 8560,3791C8488,3819 8363,3825 8291,3805Z" style="fill-rule:nonzero;"/>
        <path d="M2747,3486C2659,3453 2601,3385 2574,3280C2529,3103 2608,2928 2754,2885C2862,2853 2957,2876 3035,2954C3100,3018 3123,3080 3122,3189C3121,3322 3064,3427 2965,3475C2914,3499 2799,3505 2747,3486Z" style="fill-rule:nonzero;"/>
        <path d="M5525,3476C5425,3429 5370,3339 5362,3209C5351,3026 5454,2890 5613,2873C5738,2860 5866,2941 5904,3057C5928,3130 5927,3252 5900,3322C5845,3471 5667,3543 5525,3476Z" style="fill-rule:nonzero;"/>
        <path d="M1975,1916C1940,1901 1925,1885 1911,1847L1900,1820L2009,1820C2117,1820 2118,1820 2112,1843C2103,1878 2080,1909 2057,1915C2010,1929 2004,1929 1975,1916Z" style="fill-rule:nonzero;"/>
        <path d="M2771,1904C2724,1871 2705,1777 2735,1720C2768,1657 2845,1640 2896,1683C2919,1703 2924,1717 2928,1769C2931,1805 2927,1842 2920,1860C2897,1915 2819,1937 2771,1904Z" style="fill-rule:nonzero;"/>
        <path d="M3205,1923C3176,1916 3143,1882 3131,1849L3121,1820L3340,1820L3325,1858C3309,1896 3286,1920 3264,1920C3257,1920 3246,1922 3238,1924C3231,1926 3216,1925 3205,1923Z" style="fill-rule:nonzero;"/>
        <path d="M4764,1919C4732,1910 4709,1884 4696,1843C4689,1820 4689,1820 4794,1820C4893,1820 4900,1821 4900,1840C4900,1866 4851,1917 4820,1923C4806,1926 4781,1924 4764,1919Z" style="fill-rule:nonzero;"/>
        <path d="M5139,1906C5096,1881 5073,1804 5090,1742C5111,1661 5204,1632 5261,1689C5288,1716 5290,1724 5290,1789C5290,1847 5286,1863 5267,1885C5240,1917 5177,1927 5139,1906Z" style="fill-rule:nonzero;"/>
        <path d="M5577,1760C5521,1750 5490,1727 5490,1695C5490,1662 5521,1640 5566,1640C5614,1640 5648,1662 5666,1706C5694,1773 5686,1778 5577,1760Z" style="fill-rule:nonzero;"/>
        <path d="M6671,1904C6641,1883 6620,1831 6620,1780C6620,1696 6664,1640 6730,1640C6796,1640 6840,1696 6840,1780C6840,1864 6796,1920 6730,1920C6710,1920 6684,1913 6671,1904Z" style="fill-rule:nonzero;"/>
        <path d="M7967,1909C7923,1883 7902,1769 7929,1701C7961,1624 8078,1619 8116,1692C8151,1759 8131,1883 8081,1910C8056,1923 7990,1923 7967,1909Z" style="fill-rule:nonzero;"/>
    </g>
</svg>
